# xmcd
#
# Track frame offsets:
#	150
#	8515
#	21447
#	33440
#	46075
#	65962
#	79535
#	88800
#	107080
#	124272
#	133337
#	146460
#	158750
#	171545
#	195355
#	207505
#	217317
#	238180
#	256673
#	268780
#	286610
#	303543
#	320118
#
# Disc length: 4451 seconds
#
# Revision: 1
# Processed by: cddbd v1.5.2PL0 Copyright (c) Steve Scherf et al.
# Submitted via: audiograbber 1.83.01
#
DISCID=5a116117
DTITLE=Blauen Jungs aus Bremerhaven und andere - Seemannslieder von der Waterka
DTITLE=nt
DYEAR=2016
DGENRE=Shanties
TTITLE0=Blaue Jungs aus Bremerhaven
TTITLE1=Wolken, Wind und Wogen 
TTITLE2=Jetzt heißt es Leinen los Potpourri: Das kann doch einen Seemann nicht 
TTITLE2=erschüttern/Das ist die Liebe der Matrosen 
TTITLE3=Glutrot sank die Sonn' am Himmelszelt 
TTITLE4=La Paloma 
TTITLE5=Wo der Weserstrom so manchen Bogen macht
TTITLE6=My Bonnie is over the ocean 
TTITLE7=Schwer mit den Schätzen des Orients beladen 
TTITLE8=Antje, mein blondes Kind 
TTITLE9=Kameraden auf See  
TTITLE10=Farewell, mein Mädchen aus Altona 
TTITLE11=Gorch-Fock-Lied 
TTITLE12=Roll the cotton down 
TTITLE13=Medley: Mein Hamburg, kleine Möwe, Seemann lass das träumen
TTITLE14=Gorch Fock Lied
TTITLE15=Wiskey Johnny
TTITLE16=Rum aus Jameika
TTITLE17=La Paloma
TTITLE18=The Sailors Wife is the Sailors tragedy
TTITLE19=Aloa-Ahe
TTITLE20=Auch Matrosen haben eine Heimat
TTITLE21=Rolling Home
TTITLE22=De Hamburger Veermaster 
EXTD=
EXTT0=
EXTT1=
EXTT2=
EXTT3=
EXTT4=
EXTT5=
EXTT6=
EXTT7=
EXTT8=
EXTT9=
EXTT10=
EXTT11=
EXTT12=
EXTT13=
EXTT14=
EXTT15=
EXTT16=
EXTT17=
EXTT18=
EXTT19=
EXTT20=
EXTT21=
EXTT22=
PLAYORDER=
